<?xml version="1.0" encoding="utf-8"?>
<svg viewBox="0 0 512 512" style="shape-rendering:geometricPrecision; text-rendering:geometricPrecision; image-rendering:optimizeQuality; fill-rule:evenodd; clip-rule:evenodd" xmlns="http://www.w3.org/2000/svg" xmlns:xlink="http://www.w3.org/1999/xlink" xmlns:bx="https://boxy-svg.com">
  <defs>
    <linearGradient id="gradient-3-0" gradientUnits="userSpaceOnUse" x1="191.716" y1="74.54" x2="191.716" y2="397.786" gradientTransform="matrix(1, 0, 0, 1, 66.381056, 25.397969)" xlink:href="#gradient-3"/>
    <linearGradient id="gradient-3" bx:pinned="true">
      <stop offset="0" style="stop-color: rgb(250, 194, 19);"/>
      <stop offset="1" style="stop-color: rgb(214, 28, 78);"/>
    </linearGradient>
    <linearGradient id="gradient-0-0" gradientUnits="userSpaceOnUse" x1="255.501" y1="104.043" x2="255.501" y2="236.229" xlink:href="#gradient-0"/>
    <linearGradient id="gradient-0">
      <stop offset="0" style="stop-color: rgb(248, 184, 23);"/>
      <stop offset="1" style="stop-color: rgb(234, 121, 44);"/>
    </linearGradient>
  </defs>

  <ellipse style="fill-rule: evenodd; paint-order: fill; stroke: rgb(0, 0, 0); fill: url(#gradient-3-0); stroke-opacity: 0;" cx="258.097" cy="261.561" rx="256.287" ry="256.287" transform="matrix(1, -0.000103, 0, 1, -2.886128, -5.745661)"></ellipse>
  <g>
    <path style="opacity:1" fill="#fdfefe" d="M 265.5,73.5 C 274.679,75.0449 283.679,77.3782 292.5,80.5C 302.343,84.9165 311.343,90.5831 319.5,97.5C 324.901,101.898 329.567,106.898 333.5,112.5C 339.229,120.628 343.896,129.294 347.5,138.5C 353.885,159.137 353.885,179.804 347.5,200.5C 340.872,219.145 329.872,234.812 314.5,247.5C 325.934,252.383 336.934,258.05 347.5,264.5C 355.433,270.426 363.1,276.759 370.5,283.5C 371.262,285.262 372.596,286.262 374.5,286.5C 387.417,300.678 398.084,316.345 406.5,333.5C 408.324,338.325 410.324,342.992 412.5,347.5C 418.202,365.35 421.202,383.684 421.5,402.5C 411.5,402.5 401.5,402.5 391.5,402.5C 391.626,380.003 386.293,359.003 375.5,339.5C 374.416,336.996 373.083,334.663 371.5,332.5C 365.735,321.656 358.068,312.322 348.5,304.5C 344.618,299.563 339.952,295.563 334.5,292.5C 330.677,289.084 326.343,286.418 321.5,284.5C 314.475,279.824 306.808,276.491 298.5,274.5C 297.22,273.069 295.553,272.402 293.5,272.5C 278.657,267.962 263.657,266.295 248.5,267.5C 244.069,267.231 239.735,267.564 235.5,268.5C 229.484,268.833 223.817,270.166 218.5,272.5C 214.085,272.861 210.085,274.194 206.5,276.5C 197.415,279.541 189.081,283.875 181.5,289.5C 168.648,297.347 157.648,307.347 148.5,319.5C 147.512,320.795 146.512,322.128 145.5,323.5C 132.462,340.252 124.462,359.252 121.5,380.5C 119.819,387.69 119.153,395.023 119.5,402.5C 109.5,402.5 99.5,402.5 89.5,402.5C 89.5541,386.9 91.5541,371.567 95.5,356.5C 99.652,344.523 104.652,332.856 110.5,321.5C 114.487,315.537 118.487,309.537 122.5,303.5C 130.044,294.412 138.044,285.745 146.5,277.5C 147.5,276.833 148.5,276.167 149.5,275.5C 159.14,267.008 169.807,260.008 181.5,254.5C 186.565,252.364 191.565,250.031 196.5,247.5C 191.146,242.812 186.146,237.812 181.5,232.5C 174.738,223.985 169.238,214.652 165,204.5C 153.021,169.039 158.521,136.705 181.5,107.5C 189.29,98.7128 198.29,91.3795 208.5,85.5C 212.362,83.7381 216.028,81.7381 219.5,79.5C 225.05,78.2036 230.383,76.537 235.5,74.5C 245.479,73.7039 255.479,73.3705 265.5,73.5 Z"/>
  </g>
  <ellipse style="stroke: rgb(0, 0, 0); stroke-opacity: 0; fill-rule: nonzero; fill: url(#gradient-0-0);" cx="255.501" cy="170.136" rx="66.093" ry="66.093"/>
</svg>
