<svg width="195" height="26" viewBox="0 0 195 26" fill="none" xmlns="http://www.w3.org/2000/svg">
<path d="M12.3172 1C13.0839 1 13.7505 1.28333 14.3172 1.85C14.8839 2.38333 15.1672 3.05 15.1672 3.85C15.1672 4.65 14.8839 5.33333 14.3172 5.9C13.7505 6.43333 13.0839 6.7 12.3172 6.7H8.61719C7.98385 6.7 7.38385 6.95 6.81719 7.45C6.31719 8.01667 6.06719 8.61667 6.06719 9.25V23.15C6.06719 23.9167 5.78385 24.5833 5.21719 25.15C4.68385 25.7167 4.01719 26 3.21719 26C2.45052 26 1.78385 25.7167 1.21719 25.15C0.650521 24.5833 0.367188 23.9167 0.367188 23.15V9.25C0.367188 8.15 0.567188 7.1 0.967188 6.1C1.40052 5.06667 2.00052 4.16667 2.76719 3.4C3.53385 2.63333 4.41719 2.05 5.41719 1.65C6.45052 1.21667 7.51719 1 8.61719 1H12.3172ZM32.4953 11.05C33.4286 11.1833 34.2786 11.4667 35.0453 11.9C35.8453 12.3 36.5286 12.8333 37.0953 13.5C37.662 14.1333 38.0953 14.8667 38.3953 15.7C38.7286 16.5333 38.8953 17.4167 38.8953 18.35C38.8953 19.3167 38.712 20.2667 38.3453 21.2C37.9786 22.1 37.4453 22.9 36.7453 23.6C36.0453 24.3 35.2286 24.85 34.2953 25.25C33.3953 25.6167 32.4453 25.8 31.4453 25.8H20.7953C20.0286 25.8 19.362 25.5167 18.7953 24.95C18.2286 24.3833 17.9453 23.7167 17.9453 22.95C17.9453 22.15 18.2286 21.4667 18.7953 20.9C19.362 20.3333 20.0286 20.05 20.7953 20.05H31.4453C31.9453 20.05 32.362 19.8833 32.6953 19.55C33.0286 19.2167 33.1953 18.8167 33.1953 18.35C33.1953 17.95 33.062 17.6 32.7953 17.3C32.5286 17 32.1953 16.8167 31.7953 16.75C30.5286 16.5833 29.162 16.4167 27.6953 16.25C26.2286 16.05 24.862 15.8667 23.5953 15.7C22.6953 15.6 21.8453 15.3333 21.0453 14.9C20.2786 14.4667 19.5953 13.9333 18.9953 13.3C18.4286 12.6333 17.9786 11.9 17.6453 11.1C17.3453 10.2667 17.1953 9.38333 17.1953 8.45C17.1953 7.41667 17.3953 6.45 17.7953 5.55C18.1953 4.65 18.7286 3.86667 19.3953 3.2C20.062 2.5 20.8453 1.96667 21.7453 1.6C22.6453 1.2 23.612 1 24.6453 1H34.5453C35.3453 1 36.0286 1.28333 36.5953 1.85C37.162 2.38333 37.4453 3.05 37.4453 3.85C37.4453 4.65 37.162 5.33333 36.5953 5.9C36.0286 6.43333 35.3453 6.7 34.5453 6.7H24.6453C24.1786 6.7 23.762 6.88333 23.3953 7.25C23.062 7.58333 22.8953 7.98333 22.8953 8.45C22.8953 8.85 23.0286 9.2 23.2953 9.5C23.562 9.8 23.8953 9.98333 24.2953 10.05L32.4953 11.05ZM59.0629 17.85C59.5962 17.2833 60.2462 16.9667 61.0129 16.9C61.8129 16.8333 62.5129 17.05 63.1129 17.55C63.7129 18.0833 64.0296 18.75 64.0629 19.55C64.1296 20.3167 63.9129 21 63.4129 21.6C62.2462 22.9667 60.8296 24.05 59.1629 24.85C57.5296 25.6167 55.7462 26 53.8129 26C52.0796 26 50.4462 25.6667 48.9129 25C47.3796 24.3333 46.0462 23.4333 44.9129 22.3C43.7796 21.1667 42.8796 19.8333 42.2129 18.3C41.5462 16.7667 41.2129 15.1333 41.2129 13.4C41.2129 11.6333 41.5462 9.98333 42.2129 8.45C42.8796 6.91667 43.7796 5.58333 44.9129 4.45C46.0462 3.31667 47.3796 2.41667 48.9129 1.75C50.4462 1.08333 52.0796 0.75 53.8129 0.75C55.7462 0.75 57.5296 1.15 59.1629 1.95C60.8296 2.75 62.2462 3.81667 63.4129 5.15C63.9129 5.75 64.1296 6.45 64.0629 7.25C64.0296 8.01667 63.7129 8.66667 63.1129 9.2C62.5129 9.73333 61.8129 9.96667 61.0129 9.9C60.2462 9.83333 59.5962 9.5 59.0629 8.9C58.4296 8.13333 57.6629 7.55 56.7629 7.15C55.8629 6.71667 54.8796 6.5 53.8129 6.5C52.8796 6.5 51.9796 6.68333 51.1129 7.05C50.2796 7.41667 49.5462 7.91667 48.9129 8.55C48.3129 9.15 47.8296 9.86667 47.4629 10.7C47.0962 11.5333 46.9129 12.4333 46.9129 13.4C46.9129 14.3333 47.0962 15.2333 47.4629 16.1C47.8296 16.9333 48.3129 17.6667 48.9129 18.3C49.5462 18.9 50.2796 19.3833 51.1129 19.75C51.9796 20.1167 52.8796 20.3 53.8129 20.3C54.8796 20.3 55.8629 20.0833 56.7629 19.65C57.6629 19.2167 58.4296 18.6167 59.0629 17.85ZM79.2035 0.75C80.9702 0.75 82.6202 1.08333 84.1535 1.75C85.6869 2.41667 87.0202 3.31667 88.1535 4.45C89.2869 5.58333 90.1868 6.91667 90.8535 8.45C91.5202 9.98333 91.8535 11.6333 91.8535 13.4V23.15C91.8535 23.9167 91.5702 24.5833 91.0035 25.15C90.4369 25.7167 89.7535 26 88.9535 26C88.2868 26 87.7035 25.8 87.2035 25.4C86.7035 25 86.3702 24.5 86.2035 23.9C85.2035 24.5667 84.1035 25.0833 82.9035 25.45C81.7368 25.8167 80.5035 26 79.2035 26C77.4702 26 75.8368 25.6667 74.3035 25C72.7702 24.3333 71.4368 23.4333 70.3035 22.3C69.1702 21.1667 68.2702 19.8333 67.6035 18.3C66.9368 16.7667 66.6035 15.1333 66.6035 13.4C66.6035 11.6333 66.9368 9.98333 67.6035 8.45C68.2702 6.91667 69.1702 5.58333 70.3035 4.45C71.4368 3.31667 72.7702 2.41667 74.3035 1.75C75.8368 1.08333 77.4702 0.75 79.2035 0.75ZM79.2035 20.3C80.1702 20.3 81.0702 20.1167 81.9035 19.75C82.7368 19.3833 83.4535 18.9 84.0535 18.3C84.6868 17.6667 85.1868 16.9333 85.5535 16.1C85.9202 15.2333 86.1035 14.3333 86.1035 13.4C86.1035 12.4333 85.9202 11.5333 85.5535 10.7C85.1868 9.86667 84.6868 9.15 84.0535 8.55C83.4535 7.91667 82.7368 7.41667 81.9035 7.05C81.0702 6.68333 80.1702 6.5 79.2035 6.5C78.2702 6.5 77.3702 6.68333 76.5035 7.05C75.6702 7.41667 74.9368 7.91667 74.3035 8.55C73.7035 9.15 73.2202 9.86667 72.8535 10.7C72.4868 11.5333 72.3035 12.4333 72.3035 13.4C72.3035 14.3333 72.4868 15.2333 72.8535 16.1C73.2202 16.9333 73.7035 17.6667 74.3035 18.3C74.9368 18.9 75.6702 19.3833 76.5035 19.75C77.3702 20.1167 78.2702 20.3 79.2035 20.3ZM107.688 0.75C109.455 0.75 111.105 1.08333 112.638 1.75C114.171 2.41667 115.505 3.31667 116.638 4.45C117.771 5.58333 118.671 6.91667 119.338 8.45C120.005 9.98333 120.338 11.6333 120.338 13.4V23.15C120.338 23.9167 120.055 24.5833 119.488 25.15C118.921 25.7167 118.238 26 117.438 26C116.671 26 116.005 25.7167 115.438 25.15C114.871 24.5833 114.588 23.9167 114.588 23.15V13.4C114.588 12.4333 114.405 11.5333 114.038 10.7C113.671 9.86667 113.171 9.15 112.538 8.55C111.938 7.91667 111.221 7.41667 110.388 7.05C109.555 6.68333 108.655 6.5 107.688 6.5C106.755 6.5 105.855 6.68333 104.988 7.05C104.155 7.41667 103.421 7.91667 102.788 8.55C102.188 9.15 101.705 9.86667 101.338 10.7C100.971 11.5333 100.788 12.4333 100.788 13.4V23.15C100.788 23.9167 100.505 24.5833 99.9379 25.15C99.4046 25.7167 98.7379 26 97.9379 26C97.1712 26 96.5046 25.7167 95.9379 25.15C95.3712 24.5833 95.0879 23.9167 95.0879 23.15V13.4C95.0879 11.6333 95.4212 9.98333 96.0879 8.45C96.7546 6.91667 97.6546 5.58333 98.7879 4.45C99.9212 3.31667 101.255 2.41667 102.788 1.75C104.321 1.08333 105.955 0.75 107.688 0.75ZM136.448 0.75C138.214 0.75 139.864 1.08333 141.398 1.75C142.931 2.41667 144.264 3.31667 145.398 4.45C146.531 5.58333 147.431 6.91667 148.098 8.45C148.764 9.98333 149.098 11.6333 149.098 13.4V23.15C149.098 23.9167 148.814 24.5833 148.248 25.15C147.681 25.7167 146.998 26 146.198 26C145.431 26 144.764 25.7167 144.198 25.15C143.631 24.5833 143.348 23.9167 143.348 23.15V13.4C143.348 12.4333 143.164 11.5333 142.798 10.7C142.431 9.86667 141.931 9.15 141.298 8.55C140.698 7.91667 139.981 7.41667 139.148 7.05C138.314 6.68333 137.414 6.5 136.448 6.5C135.514 6.5 134.614 6.68333 133.748 7.05C132.914 7.41667 132.181 7.91667 131.548 8.55C130.948 9.15 130.464 9.86667 130.098 10.7C129.731 11.5333 129.548 12.4333 129.548 13.4V23.15C129.548 23.9167 129.264 24.5833 128.698 25.15C128.164 25.7167 127.498 26 126.698 26C125.931 26 125.264 25.7167 124.698 25.15C124.131 24.5833 123.848 23.9167 123.848 23.15V13.4C123.848 11.6333 124.181 9.98333 124.848 8.45C125.514 6.91667 126.414 5.58333 127.548 4.45C128.681 3.31667 130.014 2.41667 131.548 1.75C133.081 1.08333 134.714 0.75 136.448 0.75ZM177.007 11.4C177.174 12.7 176.841 13.8333 176.007 14.8C175.607 15.2667 175.124 15.6333 174.557 15.9C174.024 16.1333 173.457 16.25 172.857 16.25H158.257C158.824 17.45 159.657 18.4333 160.757 19.2C161.857 19.9333 163.107 20.3 164.507 20.3C165.374 20.3 166.191 20.15 166.957 19.85C167.757 19.55 168.457 19.1333 169.057 18.6C169.657 18.0667 170.341 17.8333 171.107 17.9C171.907 17.9333 172.574 18.25 173.107 18.85C173.607 19.45 173.824 20.15 173.757 20.95C173.724 21.7167 173.407 22.3667 172.807 22.9C171.707 23.8667 170.441 24.6333 169.007 25.2C167.607 25.7333 166.107 26 164.507 26C162.774 26 161.141 25.6667 159.607 25C158.074 24.3333 156.741 23.4333 155.607 22.3C154.474 21.1667 153.574 19.8333 152.907 18.3C152.241 16.7667 151.907 15.1333 151.907 13.4C151.907 11.6333 152.241 9.98333 152.907 8.45C153.574 6.91667 154.474 5.58333 155.607 4.45C156.741 3.31667 158.074 2.41667 159.607 1.75C161.141 1.08333 162.774 0.75 164.507 0.75C166.074 0.75 167.557 1.03333 168.957 1.6C170.391 2.13333 171.657 2.88333 172.757 3.85C173.857 4.78333 174.774 5.9 175.507 7.2C176.274 8.5 176.774 9.9 177.007 11.4ZM170.807 10.55C170.241 9.35 169.391 8.38333 168.257 7.65C167.157 6.88333 165.907 6.5 164.507 6.5C163.107 6.5 161.857 6.88333 160.757 7.65C159.657 8.38333 158.824 9.35 158.257 10.55H170.807ZM192.005 1C192.771 1 193.438 1.28333 194.005 1.85C194.571 2.38333 194.855 3.05 194.855 3.85C194.855 4.65 194.571 5.33333 194.005 5.9C193.438 6.43333 192.771 6.7 192.005 6.7H188.305C187.671 6.7 187.071 6.95 186.505 7.45C186.005 8.01667 185.755 8.61667 185.755 9.25V23.15C185.755 23.9167 185.471 24.5833 184.905 25.15C184.371 25.7167 183.705 26 182.905 26C182.138 26 181.471 25.7167 180.905 25.15C180.338 24.5833 180.055 23.9167 180.055 23.15V9.25C180.055 8.15 180.255 7.1 180.655 6.1C181.088 5.06667 181.688 4.16667 182.455 3.4C183.221 2.63333 184.105 2.05 185.105 1.65C186.138 1.21667 187.205 1 188.305 1H192.005Z" fill="url(#paint0_linear_0_1)"/>
<defs>
<linearGradient id="paint0_linear_0_1" x1="176" y1="13" x2="10" y2="13.5" gradientUnits="userSpaceOnUse">
<stop stop-color="#D61C4E"/>
<stop offset="0.479167" stop-color="#F77E21"/>
<stop offset="1" stop-color="#FAC213"/>
</linearGradient>
</defs>
</svg>
