<svg width="243" height="40" viewBox="0 0 243 40" fill="none" xmlns="http://www.w3.org/2000/svg">
<path d="M60.3172 8C61.0839 8 61.7505 8.28333 62.3172 8.85C62.8839 9.38333 63.1672 10.05 63.1672 10.85C63.1672 11.65 62.8839 12.3333 62.3172 12.9C61.7505 13.4333 61.0839 13.7 60.3172 13.7H56.6172C55.9839 13.7 55.3839 13.95 54.8172 14.45C54.3172 15.0167 54.0672 15.6167 54.0672 16.25V30.15C54.0672 30.9167 53.7839 31.5833 53.2172 32.15C52.6839 32.7167 52.0172 33 51.2172 33C50.4505 33 49.7839 32.7167 49.2172 32.15C48.6505 31.5833 48.3672 30.9167 48.3672 30.15V16.25C48.3672 15.15 48.5672 14.1 48.9672 13.1C49.4005 12.0667 50.0005 11.1667 50.7672 10.4C51.5339 9.63333 52.4172 9.05 53.4172 8.65C54.4505 8.21667 55.5172 8 56.6172 8H60.3172ZM80.4953 18.05C81.4286 18.1833 82.2786 18.4667 83.0453 18.9C83.8453 19.3 84.5286 19.8333 85.0953 20.5C85.662 21.1333 86.0953 21.8667 86.3953 22.7C86.7286 23.5333 86.8953 24.4167 86.8953 25.35C86.8953 26.3167 86.712 27.2667 86.3453 28.2C85.9786 29.1 85.4453 29.9 84.7453 30.6C84.0453 31.3 83.2286 31.85 82.2953 32.25C81.3953 32.6167 80.4453 32.8 79.4453 32.8H68.7953C68.0286 32.8 67.362 32.5167 66.7953 31.95C66.2286 31.3833 65.9453 30.7167 65.9453 29.95C65.9453 29.15 66.2286 28.4667 66.7953 27.9C67.362 27.3333 68.0286 27.05 68.7953 27.05H79.4453C79.9453 27.05 80.362 26.8833 80.6953 26.55C81.0286 26.2167 81.1953 25.8167 81.1953 25.35C81.1953 24.95 81.062 24.6 80.7953 24.3C80.5286 24 80.1953 23.8167 79.7953 23.75C78.5286 23.5833 77.162 23.4167 75.6953 23.25C74.2286 23.05 72.862 22.8667 71.5953 22.7C70.6953 22.6 69.8453 22.3333 69.0453 21.9C68.2786 21.4667 67.5953 20.9333 66.9953 20.3C66.4286 19.6333 65.9786 18.9 65.6453 18.1C65.3453 17.2667 65.1953 16.3833 65.1953 15.45C65.1953 14.4167 65.3953 13.45 65.7953 12.55C66.1953 11.65 66.7286 10.8667 67.3953 10.2C68.062 9.5 68.8453 8.96667 69.7453 8.6C70.6453 8.2 71.612 8 72.6453 8H82.5453C83.3453 8 84.0286 8.28333 84.5953 8.85C85.162 9.38333 85.4453 10.05 85.4453 10.85C85.4453 11.65 85.162 12.3333 84.5953 12.9C84.0286 13.4333 83.3453 13.7 82.5453 13.7H72.6453C72.1786 13.7 71.762 13.8833 71.3953 14.25C71.062 14.5833 70.8953 14.9833 70.8953 15.45C70.8953 15.85 71.0286 16.2 71.2953 16.5C71.562 16.8 71.8953 16.9833 72.2953 17.05L80.4953 18.05ZM107.063 24.85C107.596 24.2833 108.246 23.9667 109.013 23.9C109.813 23.8333 110.513 24.05 111.113 24.55C111.713 25.0833 112.03 25.75 112.063 26.55C112.13 27.3167 111.913 28 111.413 28.6C110.246 29.9667 108.83 31.05 107.163 31.85C105.53 32.6167 103.746 33 101.813 33C100.08 33 98.4462 32.6667 96.9129 32C95.3796 31.3333 94.0462 30.4333 92.9129 29.3C91.7796 28.1667 90.8796 26.8333 90.2129 25.3C89.5462 23.7667 89.2129 22.1333 89.2129 20.4C89.2129 18.6333 89.5462 16.9833 90.2129 15.45C90.8796 13.9167 91.7796 12.5833 92.9129 11.45C94.0462 10.3167 95.3796 9.41667 96.9129 8.75C98.4462 8.08333 100.08 7.75 101.813 7.75C103.746 7.75 105.53 8.15 107.163 8.95C108.83 9.75 110.246 10.8167 111.413 12.15C111.913 12.75 112.13 13.45 112.063 14.25C112.03 15.0167 111.713 15.6667 111.113 16.2C110.513 16.7333 109.813 16.9667 109.013 16.9C108.246 16.8333 107.596 16.5 107.063 15.9C106.43 15.1333 105.663 14.55 104.763 14.15C103.863 13.7167 102.88 13.5 101.813 13.5C100.88 13.5 99.9796 13.6833 99.1129 14.05C98.2796 14.4167 97.5462 14.9167 96.9129 15.55C96.3129 16.15 95.8296 16.8667 95.4629 17.7C95.0962 18.5333 94.9129 19.4333 94.9129 20.4C94.9129 21.3333 95.0962 22.2333 95.4629 23.1C95.8296 23.9333 96.3129 24.6667 96.9129 25.3C97.5462 25.9 98.2796 26.3833 99.1129 26.75C99.9796 27.1167 100.88 27.3 101.813 27.3C102.88 27.3 103.863 27.0833 104.763 26.65C105.663 26.2167 106.43 25.6167 107.063 24.85ZM127.204 7.75C128.97 7.75 130.62 8.08333 132.154 8.75C133.687 9.41667 135.02 10.3167 136.154 11.45C137.287 12.5833 138.187 13.9167 138.854 15.45C139.52 16.9833 139.854 18.6333 139.854 20.4V30.15C139.854 30.9167 139.57 31.5833 139.004 32.15C138.437 32.7167 137.754 33 136.954 33C136.287 33 135.704 32.8 135.204 32.4C134.704 32 134.37 31.5 134.204 30.9C133.204 31.5667 132.104 32.0833 130.904 32.45C129.737 32.8167 128.504 33 127.204 33C125.47 33 123.837 32.6667 122.304 32C120.77 31.3333 119.437 30.4333 118.304 29.3C117.17 28.1667 116.27 26.8333 115.604 25.3C114.937 23.7667 114.604 22.1333 114.604 20.4C114.604 18.6333 114.937 16.9833 115.604 15.45C116.27 13.9167 117.17 12.5833 118.304 11.45C119.437 10.3167 120.77 9.41667 122.304 8.75C123.837 8.08333 125.47 7.75 127.204 7.75ZM127.204 27.3C128.17 27.3 129.07 27.1167 129.904 26.75C130.737 26.3833 131.454 25.9 132.054 25.3C132.687 24.6667 133.187 23.9333 133.554 23.1C133.92 22.2333 134.104 21.3333 134.104 20.4C134.104 19.4333 133.92 18.5333 133.554 17.7C133.187 16.8667 132.687 16.15 132.054 15.55C131.454 14.9167 130.737 14.4167 129.904 14.05C129.07 13.6833 128.17 13.5 127.204 13.5C126.27 13.5 125.37 13.6833 124.504 14.05C123.67 14.4167 122.937 14.9167 122.304 15.55C121.704 16.15 121.22 16.8667 120.854 17.7C120.487 18.5333 120.304 19.4333 120.304 20.4C120.304 21.3333 120.487 22.2333 120.854 23.1C121.22 23.9333 121.704 24.6667 122.304 25.3C122.937 25.9 123.67 26.3833 124.504 26.75C125.37 27.1167 126.27 27.3 127.204 27.3ZM155.688 7.75C157.455 7.75 159.105 8.08333 160.638 8.75C162.171 9.41667 163.505 10.3167 164.638 11.45C165.771 12.5833 166.671 13.9167 167.338 15.45C168.005 16.9833 168.338 18.6333 168.338 20.4V30.15C168.338 30.9167 168.055 31.5833 167.488 32.15C166.921 32.7167 166.238 33 165.438 33C164.671 33 164.005 32.7167 163.438 32.15C162.871 31.5833 162.588 30.9167 162.588 30.15V20.4C162.588 19.4333 162.405 18.5333 162.038 17.7C161.671 16.8667 161.171 16.15 160.538 15.55C159.938 14.9167 159.221 14.4167 158.388 14.05C157.555 13.6833 156.655 13.5 155.688 13.5C154.755 13.5 153.855 13.6833 152.988 14.05C152.155 14.4167 151.421 14.9167 150.788 15.55C150.188 16.15 149.705 16.8667 149.338 17.7C148.971 18.5333 148.788 19.4333 148.788 20.4V30.15C148.788 30.9167 148.505 31.5833 147.938 32.15C147.405 32.7167 146.738 33 145.938 33C145.171 33 144.505 32.7167 143.938 32.15C143.371 31.5833 143.088 30.9167 143.088 30.15V20.4C143.088 18.6333 143.421 16.9833 144.088 15.45C144.755 13.9167 145.655 12.5833 146.788 11.45C147.921 10.3167 149.255 9.41667 150.788 8.75C152.321 8.08333 153.955 7.75 155.688 7.75ZM184.448 7.75C186.214 7.75 187.864 8.08333 189.398 8.75C190.931 9.41667 192.264 10.3167 193.398 11.45C194.531 12.5833 195.431 13.9167 196.098 15.45C196.764 16.9833 197.098 18.6333 197.098 20.4V30.15C197.098 30.9167 196.814 31.5833 196.248 32.15C195.681 32.7167 194.998 33 194.198 33C193.431 33 192.764 32.7167 192.198 32.15C191.631 31.5833 191.348 30.9167 191.348 30.15V20.4C191.348 19.4333 191.164 18.5333 190.798 17.7C190.431 16.8667 189.931 16.15 189.298 15.55C188.698 14.9167 187.981 14.4167 187.148 14.05C186.314 13.6833 185.414 13.5 184.448 13.5C183.514 13.5 182.614 13.6833 181.748 14.05C180.914 14.4167 180.181 14.9167 179.548 15.55C178.948 16.15 178.464 16.8667 178.098 17.7C177.731 18.5333 177.548 19.4333 177.548 20.4V30.15C177.548 30.9167 177.264 31.5833 176.698 32.15C176.164 32.7167 175.498 33 174.698 33C173.931 33 173.264 32.7167 172.698 32.15C172.131 31.5833 171.848 30.9167 171.848 30.15V20.4C171.848 18.6333 172.181 16.9833 172.848 15.45C173.514 13.9167 174.414 12.5833 175.548 11.45C176.681 10.3167 178.014 9.41667 179.548 8.75C181.081 8.08333 182.714 7.75 184.448 7.75ZM225.007 18.4C225.174 19.7 224.841 20.8333 224.007 21.8C223.607 22.2667 223.124 22.6333 222.557 22.9C222.024 23.1333 221.457 23.25 220.857 23.25H206.257C206.824 24.45 207.657 25.4333 208.757 26.2C209.857 26.9333 211.107 27.3 212.507 27.3C213.374 27.3 214.191 27.15 214.957 26.85C215.757 26.55 216.457 26.1333 217.057 25.6C217.657 25.0667 218.341 24.8333 219.107 24.9C219.907 24.9333 220.574 25.25 221.107 25.85C221.607 26.45 221.824 27.15 221.757 27.95C221.724 28.7167 221.407 29.3667 220.807 29.9C219.707 30.8667 218.441 31.6333 217.007 32.2C215.607 32.7333 214.107 33 212.507 33C210.774 33 209.141 32.6667 207.607 32C206.074 31.3333 204.741 30.4333 203.607 29.3C202.474 28.1667 201.574 26.8333 200.907 25.3C200.241 23.7667 199.907 22.1333 199.907 20.4C199.907 18.6333 200.241 16.9833 200.907 15.45C201.574 13.9167 202.474 12.5833 203.607 11.45C204.741 10.3167 206.074 9.41667 207.607 8.75C209.141 8.08333 210.774 7.75 212.507 7.75C214.074 7.75 215.557 8.03333 216.957 8.6C218.391 9.13333 219.657 9.88333 220.757 10.85C221.857 11.7833 222.774 12.9 223.507 14.2C224.274 15.5 224.774 16.9 225.007 18.4ZM218.807 17.55C218.241 16.35 217.391 15.3833 216.257 14.65C215.157 13.8833 213.907 13.5 212.507 13.5C211.107 13.5 209.857 13.8833 208.757 14.65C207.657 15.3833 206.824 16.35 206.257 17.55H218.807ZM240.005 8C240.771 8 241.438 8.28333 242.005 8.85C242.571 9.38333 242.855 10.05 242.855 10.85C242.855 11.65 242.571 12.3333 242.005 12.9C241.438 13.4333 240.771 13.7 240.005 13.7H236.305C235.671 13.7 235.071 13.95 234.505 14.45C234.005 15.0167 233.755 15.6167 233.755 16.25V30.15C233.755 30.9167 233.471 31.5833 232.905 32.15C232.371 32.7167 231.705 33 230.905 33C230.138 33 229.471 32.7167 228.905 32.15C228.338 31.5833 228.055 30.9167 228.055 30.15V16.25C228.055 15.15 228.255 14.1 228.655 13.1C229.088 12.0667 229.688 11.1667 230.455 10.4C231.221 9.63333 232.105 9.05 233.105 8.65C234.138 8.21667 235.205 8 236.305 8H240.005Z" fill="url(#paint0_linear_0_1)"/>
<g clip-path="url(#clip0_0_1)">
<path d="M22.8125 0.343746C21.9922 0.476559 21.875 0.499996 12.5391 2.76562C5.21875 4.54687 4.95312 4.61718 4.74219 4.84375C4.625 4.97656 4.53125 5.16406 4.53125 5.26562C4.53125 5.60937 6.39062 13.6797 6.51562 13.8672C6.83594 14.3594 9.38281 15.7266 11.6016 16.6016C13.9766 17.5391 17.1328 18.3984 20.5156 19.0234C22.2969 19.3516 24.6953 19.6875 24.9141 19.6328C25.0234 19.6094 25.2656 19.4844 25.4531 19.3594C25.6406 19.2266 25.8047 19.1406 25.8125 19.1562C25.8203 19.1641 25.8672 19.3359 25.9141 19.5312C25.9609 19.7266 26.0156 19.9375 26.0469 20C26.0781 20.0781 25.75 20.5547 25.0469 21.4453C23.375 23.5469 23.3984 23.5156 23.3984 24.1719V24.7344L24.0625 25.6641C25.0391 27.0234 25.4453 27.4453 26.0391 27.6797C26.3125 27.7891 26.7578 27.9219 27.0391 27.9766C27.3125 28.0234 27.5781 28.0781 27.6172 28.0859C27.7422 28.1172 28.1406 30.0469 28.0859 30.3203C28.0156 30.6406 27.5 31.0469 26.8047 31.3281C25.4531 31.8828 25.0547 32.1875 24.6875 32.9297C24.5234 33.2656 24.4922 33.4297 24.4922 34.1016V34.8828L24.875 35.625C25.7734 37.3828 26.5156 38.2578 27.5391 38.75C29.1797 39.5391 33.6719 40.2266 35.1719 39.9141C36.625 39.6094 37.8359 38.4844 38.8203 36.5078C39.6484 34.8437 39.875 33.8516 39.8594 31.9922C39.8438 29.8516 39.8125 29.6875 38.0859 23.8672C37.2734 21.1328 36.8594 19.5234 36.625 18.1641C36.4766 17.3125 36.4531 16.8516 36.4453 15.3125C36.4453 12.7031 36.6562 11.7344 37.4688 10.7266C37.7031 10.4375 38.0078 9.97656 38.1406 9.70312C38.4531 9.07031 38.5 8.53906 38.5078 5.69531C38.5156 3.21875 38.4766 2.97656 37.9609 2.39062C37.3281 1.67187 36.6406 1.41406 34.625 1.13281C29.5781 0.421871 24.4609 0.0859337 22.8125 0.343746ZM28.2812 2.03125C31.4219 2.32812 34.5625 2.69531 35.625 2.90625C36.125 3 36.5391 3.19531 36.7578 3.4375C36.9062 3.60156 36.9141 3.70312 36.8906 6.15625C36.8594 8.64062 36.8594 8.71875 36.6797 9.0625C36.3594 9.67968 35.4062 10.6562 34.375 11.4141C33.2578 12.2344 25.3828 17.5234 25.3438 17.4766C25.3359 17.4687 25.0781 15.8594 24.7656 13.9062C24.4609 11.9531 24.1562 10.2109 24.0938 10.0391C24.0312 9.85156 23.8984 9.67187 23.7656 9.59375C23.6484 9.52343 22.625 9.25 21.4844 8.98437C17.6094 8.08593 14.5703 7.30468 11.7188 6.46875C9.50781 5.82812 8.30469 5.45312 8.39844 5.42187C8.44531 5.40625 11.6016 4.64062 15.4297 3.71875C21.7734 2.17968 22.8281 1.94531 23.7891 1.84375C24.3672 1.78125 26.5859 1.875 28.2812 2.03125ZM8.38281 7.14062C12.7344 8.47656 16.8359 9.57031 21.8516 10.7187C22.5 10.8672 22.6562 10.9297 22.6875 11.0547C22.8047 11.5625 23.7578 17.8359 23.7188 17.875C23.6484 17.9375 22.0312 17.6875 20.0781 17.2969C16.9062 16.6719 14.25 15.9297 12.0703 15.0703C11.0859 14.6797 8.82031 13.5625 8.24219 13.1875L7.85938 12.9297L7.25 10.2344C6.91406 8.75 6.59375 7.32031 6.53125 7.04687C6.46875 6.78125 6.4375 6.5625 6.45312 6.5625C6.47656 6.5625 7.34375 6.82031 8.38281 7.14062ZM34.8984 13.3359C34.7812 14.0469 34.75 15.6562 34.8359 16.6016C35.0469 18.9453 35.3828 20.3906 36.9453 25.6641C37.5078 27.5547 38.0312 29.4141 38.1016 29.8047C38.2969 30.8281 38.2969 33.2891 38.0938 33.9844C37.5547 35.9141 36.4062 37.6875 35.3828 38.1641C35 38.3359 34.8594 38.3594 33.9844 38.3594C32.3047 38.3594 29.1484 37.7812 28.2188 37.3125C27.6953 37.0469 27.0781 36.3359 26.5938 35.4531C26.1094 34.5703 25.9844 34.2109 26.0469 33.8828C26.125 33.4609 26.3906 33.2266 27.1484 32.9297C28.4531 32.4062 29.0938 31.9062 29.4609 31.1328C29.7344 30.5547 29.7578 29.9687 29.5312 28.9844C29.3359 28.1484 29.3359 28.125 29.5547 28.125C29.7891 28.125 30.4531 27.8047 30.7656 27.5391C31.1172 27.2422 31.9297 26.1641 32.1094 25.7578C32.3359 25.2344 32.4453 24.3516 32.3906 23.5547C32.3281 22.75 32.1406 21.4766 32.0234 21.125C31.875 20.6484 31.7344 20.5937 29.5625 20.1094L27.5312 19.6641L27.4375 19.1094C27.3828 18.8047 27.3203 18.4687 27.2969 18.3594C27.2578 18.1719 27.4219 18.0469 29.8594 16.4297C31.2891 15.4766 32.9922 14.3281 33.6328 13.875C34.2812 13.4297 34.8359 13.0547 34.875 13.0547C34.9141 13.0469 34.9219 13.1797 34.8984 13.3359ZM28.6094 21.5391C29.3359 21.6953 29.9219 21.8594 29.9219 21.8984C29.9219 21.9844 28.7734 23.6719 28.3203 24.2422C28.125 24.4922 27.8672 24.7344 27.75 24.7734C27.0859 25.0312 25 24.5469 25 24.1406C25 24.1094 25.3906 23.6016 25.8594 23.0078C26.3359 22.4219 26.8281 21.7812 26.9688 21.5937C27.1016 21.4062 27.2344 21.25 27.2578 21.25C27.2812 21.25 27.8906 21.3828 28.6094 21.5391ZM30.7422 24.7422C30.6797 25.1484 29.8984 26.2578 29.5391 26.4453C29.2969 26.5703 28.3125 26.5937 27.8516 26.4922L27.6172 26.4375L27.9219 26.375C28.3594 26.2891 28.9062 25.9922 29.1875 25.6875C29.4844 25.3672 30.4062 24.1562 30.6016 23.8281L30.7422 23.5781L30.7656 24C30.7812 24.2266 30.7734 24.5625 30.7422 24.7422Z" fill="#FAC213"/>
<path d="M1.78906 21.6172C1.1875 21.7109 0.328125 22.5 0.15625 23.1094C0.109375 23.2969 0.078125 25.7188 0.078125 30.0781V36.7578L0.265625 37.1484C0.617188 37.9062 1.46094 38.4375 2.3125 38.4375C2.5 38.4375 3.05469 38.2969 3.5625 38.125C4.07031 37.9531 4.57813 37.8125 4.69531 37.8125C4.8125 37.8125 5.48438 38.0703 6.1875 38.375C7.375 38.9062 7.5 38.9453 8.00781 38.9453C8.51563 38.9453 8.64063 38.9062 9.82813 38.375C10.5313 38.0703 11.2031 37.8125 11.3203 37.8125C11.4375 37.8125 11.9453 37.9531 12.4531 38.125C13.4453 38.4609 13.8203 38.5 14.4297 38.3203C14.9531 38.1641 15.5469 37.6328 15.7734 37.1094L15.9375 36.7188L15.9219 29.9062L15.8984 23.0859L15.6875 22.7266C15.4453 22.3203 15.1328 22.0312 14.6563 21.7734L14.3359 21.6016L8.16406 21.5938C4.77344 21.5859 1.89844 21.6016 1.78906 21.6172ZM14.2813 22.9688C14.7813 23.2734 14.7656 23.0234 14.7656 30C14.7656 36.9766 14.7813 36.7266 14.2813 37.0312C13.9141 37.2578 13.625 37.2266 12.5625 36.8672C11.2891 36.4297 11.125 36.4453 9.5 37.1797C8.78125 37.5 8.15625 37.7344 8.00781 37.7344C7.85938 37.7344 7.23438 37.5 6.51563 37.1797C4.89063 36.4453 4.72656 36.4297 3.46875 36.8672C2.41406 37.2266 2.10938 37.2578 1.73438 37.0312C1.23438 36.7266 1.25 36.9766 1.25 30C1.25 23.0234 1.23438 23.2734 1.73438 22.9688C1.98438 22.8125 2.10938 22.8125 8.00781 22.8125C13.9063 22.8125 14.0313 22.8125 14.2813 22.9688Z" fill="#FAC213"/>
<path d="M3.67188 25.7266C3.26563 25.9297 3.21094 26.4922 3.57813 26.7656C3.77344 26.9141 12.2422 26.9141 12.4375 26.7656C12.8047 26.4922 12.75 25.9297 12.3438 25.7266C12.0625 25.5859 3.95313 25.5859 3.67188 25.7266Z" fill="#FAC213"/>
<path d="M3.54688 29.0859C3.39063 29.2188 3.33594 29.3438 3.33594 29.5312C3.33594 29.7188 3.39063 29.8438 3.54688 29.9766L3.75781 30.1562H8.00781H12.2578L12.4688 29.9766C12.7578 29.7188 12.7578 29.3438 12.4688 29.0859L12.2578 28.9062H8.00781H3.75781L3.54688 29.0859Z" fill="#FAC213"/>
<path d="M3.54688 32.3672C3.25 32.625 3.25781 33 3.54688 33.2578L3.76563 33.4453L6.03125 33.4219L8.29688 33.3984L8.44531 33.2109C8.66406 32.9375 8.64063 32.5469 8.39063 32.3516C8.1875 32.1953 8.08594 32.1875 5.96875 32.1875C3.76563 32.1875 3.75781 32.1875 3.54688 32.3672Z" fill="#FAC213"/>
</g>
<defs>
<linearGradient id="paint0_linear_0_1" x1="224" y1="20" x2="58" y2="20.5" gradientUnits="userSpaceOnUse">
<stop stop-color="#D61C4E"/>
<stop offset="0.479167" stop-color="#F77E21"/>
<stop offset="1" stop-color="#FAC213"/>
</linearGradient>
<clipPath id="clip0_0_1">
<rect width="40" height="40" fill="white"/>
</clipPath>
</defs>
</svg>
