<svg width="37" height="42" viewBox="0 0 37 42" fill="none" xmlns="http://www.w3.org/2000/svg">
<path d="M18.859 1.08692C18.0342 1.22062 17.9163 1.24422 8.52922 3.52503C1.1688 5.31821 0.901715 5.389 0.689621 5.61708C0.571791 5.75078 0.477528 5.93954 0.477528 6.04178C0.477528 6.38783 2.34709 14.5122 2.47278 14.701C2.79484 15.1965 5.35568 16.5728 7.58659 17.4537C9.9746 18.3975 13.1481 19.2626 16.5495 19.8918C18.3405 20.2221 20.7521 20.5603 20.972 20.5052C21.082 20.4816 21.3255 20.3558 21.5141 20.23C21.7026 20.0963 21.8675 20.0098 21.8754 20.0255C21.8833 20.0333 21.9304 20.2064 21.9775 20.403C22.0246 20.5996 22.0796 20.812 22.1111 20.8749C22.1425 20.9535 21.8126 21.4333 21.1056 22.3299C19.4245 24.4455 19.4481 24.4141 19.4481 25.0747V25.641L20.1158 26.5769C21.0977 27.9454 21.5062 28.3701 22.1032 28.606C22.3781 28.7161 22.8259 28.8498 23.1087 28.9049C23.3836 28.9521 23.6507 29.0071 23.69 29.015C23.8157 29.0465 24.2163 30.9891 24.1613 31.2644C24.0906 31.5868 23.5721 31.9958 22.873 32.2789C21.5141 32.8373 21.1134 33.1441 20.7442 33.8912C20.5793 34.2294 20.5479 34.3946 20.5479 35.0709V35.8574L20.9328 36.6046C21.8361 38.3742 22.5824 39.255 23.6114 39.7505C25.261 40.5449 29.7778 41.237 31.2861 40.9224C32.7472 40.6157 33.9647 39.4831 34.9545 37.4933C35.7872 35.8181 36.015 34.8193 35.9993 32.9474C35.9835 30.7925 35.9521 30.6273 34.2161 24.768C33.3991 22.0153 32.9828 20.3951 32.7472 19.0266C32.5979 18.1694 32.5743 17.7054 32.5665 16.156C32.5665 13.5291 32.7786 12.5539 33.5955 11.5393C33.8312 11.2483 34.1375 10.7843 34.2711 10.509C34.5853 9.87196 34.6324 9.33715 34.6403 6.47435C34.6481 3.98119 34.6089 3.73738 34.0904 3.14751C33.4541 2.42395 32.7629 2.16441 30.7362 1.88127C25.6617 1.16557 20.5164 0.827382 18.859 1.08692ZM24.3577 2.78573C27.5155 3.08459 30.6733 3.45424 31.7417 3.66659C32.2444 3.76097 32.6607 3.95759 32.8807 4.2014C33.0299 4.36657 33.0378 4.46881 33.0142 6.93837C33.0141 6.95231 33.0139 6.96617 33.0137 6.97995C32.9828 9.44028 32.9818 9.51997 32.8021 9.8641C32.4801 10.4854 31.5217 11.4685 30.4848 12.2314C29.3615 13.0572 21.4434 18.3817 21.4041 18.3345C21.3962 18.3267 21.137 16.7065 20.8228 14.7403C20.5164 12.7741 20.2101 11.0202 20.1472 10.8472C20.0844 10.6584 19.9508 10.4776 19.8173 10.3989C19.6995 10.3281 18.6704 10.0529 17.5236 9.78545C13.6273 8.88099 10.5716 8.0945 7.70442 7.25297C5.48136 6.60805 4.27164 6.23053 4.36591 6.19908C4.41304 6.18335 7.58659 5.41259 11.4357 4.48454C17.8142 2.93516 18.8747 2.69922 19.8409 2.59697C20.4222 2.53405 22.6531 2.62843 24.3577 2.78573ZM4.3502 7.92934C8.72561 9.27423 12.8496 10.3753 17.8928 11.5314C18.5447 11.6809 18.7019 11.7438 18.7333 11.8696C18.8511 12.3808 19.8095 18.6963 19.7702 18.7356C19.6995 18.7986 18.0734 18.5469 16.1096 18.1537C12.9203 17.5245 10.2495 16.7773 8.0579 15.9122C7.06814 15.5189 4.79009 14.3943 4.2088 14.0167L3.82389 13.7572L3.21118 11.0438C2.8734 9.5495 2.55133 8.11023 2.48849 7.83496C2.42565 7.56756 2.39422 7.34734 2.40993 7.34734C2.4335 7.34734 3.30544 7.60688 4.3502 7.92934ZM31.0111 14.1662C30.8933 14.8819 30.8619 16.502 30.9483 17.4537C31.1604 19.8131 31.4982 21.2681 33.0692 26.5769C33.6348 28.4802 34.1611 30.352 34.2318 30.7453C34.4282 31.7756 34.4282 34.253 34.224 34.953C33.6819 36.8956 32.5272 38.6809 31.4982 39.1607C31.1132 39.3337 30.9719 39.3573 30.0921 39.3573C28.4032 39.3573 25.2296 38.7753 24.2948 38.3034C23.7685 38.036 23.148 37.3203 22.6609 36.4316C22.1739 35.5428 22.0482 35.1811 22.1111 34.8507C22.1896 34.426 22.4567 34.1901 23.2187 33.8912C24.5305 33.3643 25.1746 32.8609 25.5438 32.0823C25.8188 31.5003 25.8423 30.9104 25.6145 29.9195C25.4181 29.0779 25.4181 29.0543 25.6381 29.0543C25.8738 29.0543 26.5415 28.7319 26.8557 28.4645C27.2092 28.1656 28.0261 27.0803 28.2068 26.6713C28.4346 26.1443 28.5446 25.2556 28.4896 24.4534C28.4267 23.6433 28.2382 22.3613 28.1204 22.0074C27.9711 21.5277 27.8297 21.4726 25.646 20.985L23.6036 20.5367L23.5093 19.9783C23.4543 19.6716 23.3915 19.3334 23.3679 19.2233C23.3286 19.0345 23.4936 18.9087 25.9445 17.2807C27.382 16.3211 29.0944 15.165 29.7386 14.7088C30.3906 14.2605 30.9483 13.883 30.9876 13.883C31.0268 13.8752 31.0347 14.0089 31.0111 14.1662ZM24.6876 22.4243C25.4181 22.5816 26.0073 22.7467 26.0073 22.786C26.0073 22.8726 24.8526 24.5714 24.397 25.1455C24.2006 25.3972 23.9413 25.641 23.8235 25.6803C23.1558 25.9399 21.0584 25.4522 21.0584 25.0433C21.0584 25.0118 21.4512 24.5006 21.9225 23.9029C22.4017 23.313 22.8966 22.6681 23.038 22.4793C23.1715 22.2906 23.3051 22.1333 23.3286 22.1333C23.3508 22.1333 23.894 22.2515 24.5597 22.3964C24.6019 22.4056 24.6445 22.4149 24.6876 22.4243ZM26.8321 25.6489C26.7693 26.0578 25.9837 27.1746 25.6224 27.3634C25.3789 27.4892 24.3891 27.5128 23.9256 27.4106L23.69 27.3555L23.9963 27.2926C24.4362 27.2061 24.9861 26.9072 25.2689 26.6005C25.5674 26.278 26.4943 25.059 26.6907 24.7287L26.8321 24.477L26.8557 24.9017C26.8714 25.1298 26.8635 25.468 26.8321 25.6489Z" fill="url(#paint0_linear_10_23)"/>
<path d="M4.3502 7.92934C8.72561 9.27423 12.8496 10.3753 17.8928 11.5314C18.5447 11.6809 18.7019 11.7438 18.7333 11.8696C18.8511 12.3808 19.8095 18.6963 19.7702 18.7356C19.6995 18.7986 18.0734 18.5469 16.1096 18.1537C12.9203 17.5245 10.2495 16.7773 8.0579 15.9122C7.06814 15.5189 4.79009 14.3943 4.2088 14.0167L3.82389 13.7572L3.21118 11.0438C2.8734 9.5495 2.55133 8.11023 2.48849 7.83496C2.42565 7.56756 2.39422 7.34734 2.40993 7.34734C2.4335 7.34734 3.30544 7.60688 4.3502 7.92934Z" fill="url(#paint1_linear_10_23)"/>
<path d="M31.0111 14.1662C30.8933 14.8819 30.8619 16.502 30.9483 17.4537C31.1604 19.8131 31.4982 21.2681 33.0692 26.5769C33.6348 28.4802 34.1611 30.352 34.2318 30.7453C34.4282 31.7756 34.4282 34.253 34.224 34.953C33.6819 36.8956 32.5272 38.6809 31.4982 39.1607C31.1132 39.3337 30.9719 39.3573 30.0921 39.3573C28.4032 39.3573 25.2296 38.7753 24.2948 38.3034C23.7685 38.036 23.148 37.3203 22.6609 36.4316C22.1739 35.5428 22.0482 35.1811 22.1111 34.8507C22.1896 34.426 22.4567 34.1901 23.2187 33.8912C24.5305 33.3643 25.1746 32.8609 25.5438 32.0823C25.8188 31.5003 25.8423 30.9104 25.6145 29.9195C25.4181 29.0779 25.4181 29.0543 25.6381 29.0543C25.8738 29.0543 26.5415 28.7319 26.8557 28.4645C27.2092 28.1656 28.0261 27.0803 28.2068 26.6713C28.4346 26.1443 28.5446 25.2556 28.4896 24.4534C28.4267 23.6433 28.2382 22.3613 28.1204 22.0074C27.9711 21.5277 27.8297 21.4726 25.646 20.985L23.6036 20.5367L23.5093 19.9783C23.4543 19.6716 23.3915 19.3334 23.3679 19.2233C23.3286 19.0345 23.4936 18.9087 25.9445 17.2807C27.382 16.3211 29.0944 15.165 29.7386 14.7088C30.3906 14.2605 30.9483 13.883 30.9876 13.883C31.0268 13.8752 31.0347 14.0089 31.0111 14.1662Z" fill="url(#paint2_linear_10_23)"/>
<path d="M24.6876 22.4243C25.4181 22.5816 26.0073 22.7467 26.0073 22.786C26.0073 22.8726 24.8526 24.5714 24.397 25.1455C24.2006 25.3972 23.9413 25.641 23.8235 25.6803C23.1558 25.9399 21.0584 25.4522 21.0584 25.0433C21.0584 25.0118 21.4512 24.5006 21.9225 23.9029C22.4017 23.313 22.8966 22.6681 23.038 22.4793C23.1715 22.2906 23.3051 22.1333 23.3286 22.1333C23.3508 22.1333 23.894 22.2515 24.5597 22.3964L24.6876 22.4243Z" fill="url(#paint3_linear_10_23)"/>
<path d="M26.8321 25.6489C26.7693 26.0578 25.9837 27.1746 25.6224 27.3634C25.3789 27.4892 24.3891 27.5128 23.9256 27.4106L23.69 27.3555L23.9963 27.2926C24.4362 27.2061 24.9861 26.9072 25.2689 26.6005C25.5674 26.278 26.4943 25.059 26.6907 24.7287L26.8321 24.477L26.8557 24.9017C26.8714 25.1298 26.8635 25.468 26.8321 25.6489Z" fill="url(#paint4_linear_10_23)"/>
<path d="M24.3577 2.78573C27.5155 3.08459 30.6733 3.45424 31.7417 3.66659C32.2444 3.76097 32.6607 3.95759 32.8807 4.2014C33.0299 4.36657 33.0378 4.46881 33.0142 6.93837L33.0137 6.97995C32.9828 9.44028 32.9818 9.51997 32.8021 9.8641C32.4801 10.4854 31.5217 11.4685 30.4848 12.2314C29.3615 13.0572 21.4434 18.3817 21.4041 18.3345C21.3962 18.3267 21.137 16.7065 20.8228 14.7403C20.5164 12.7741 20.2101 11.0202 20.1472 10.8472C20.0844 10.6584 19.9508 10.4776 19.8173 10.3989C19.6995 10.3281 18.6704 10.0529 17.5236 9.78545C13.6273 8.88099 10.5716 8.0945 7.70442 7.25297C5.48136 6.60805 4.27164 6.23053 4.36591 6.19908C4.41304 6.18335 7.58659 5.41259 11.4357 4.48454C17.8142 2.93516 18.8747 2.69922 19.8409 2.59697C20.4222 2.53405 22.6531 2.62843 24.3577 2.78573Z" fill="url(#paint5_linear_10_23)"/>
<path d="M33.0142 6.93837C33.0378 4.46881 33.0299 4.36657 32.8807 4.2014C32.6607 3.95759 32.2444 3.76097 31.7417 3.66659C30.6733 3.45424 27.5155 3.08459 24.3577 2.78573C22.6531 2.62843 20.4222 2.53405 19.8409 2.59697C18.8747 2.69922 17.8142 2.93516 11.4357 4.48454C7.58659 5.41259 4.41304 6.18335 4.36591 6.19908C4.27164 6.23053 5.48136 6.60805 7.70442 7.25297C10.5716 8.0945 13.6273 8.88099 17.5236 9.78545C18.6704 10.0529 19.6995 10.3281 19.8173 10.3989C19.9508 10.4776 20.0844 10.6584 20.1472 10.8472C20.2101 11.0202 20.5164 12.7741 20.8228 14.7403C21.137 16.7065 21.3962 18.3267 21.4041 18.3345C21.4434 18.3817 29.3615 13.0572 30.4848 12.2314C31.5217 11.4685 32.4801 10.4854 32.8021 9.8641C32.9818 9.51997 32.9828 9.44028 33.0137 6.97995M33.0142 6.93837L33.0137 6.97995M33.0142 6.93837C33.0141 6.95231 33.0139 6.96617 33.0137 6.97995M24.6876 22.4243C25.4181 22.5816 26.0073 22.7467 26.0073 22.786C26.0073 22.8726 24.8526 24.5714 24.397 25.1455C24.2006 25.3972 23.9413 25.641 23.8235 25.6803C23.1558 25.9399 21.0584 25.4522 21.0584 25.0433C21.0584 25.0118 21.4512 24.5006 21.9225 23.9029C22.4017 23.313 22.8966 22.6681 23.038 22.4793C23.1715 22.2906 23.3051 22.1333 23.3286 22.1333C23.3508 22.1333 23.894 22.2515 24.5597 22.3964M24.6876 22.4243L24.5597 22.3964M24.6876 22.4243C24.6445 22.4149 24.6019 22.4056 24.5597 22.3964M18.859 1.08692C18.0342 1.22062 17.9163 1.24422 8.52922 3.52503C1.1688 5.31821 0.901715 5.389 0.689621 5.61708C0.571791 5.75078 0.477528 5.93954 0.477528 6.04178C0.477528 6.38783 2.34709 14.5122 2.47278 14.701C2.79484 15.1965 5.35568 16.5728 7.58659 17.4537C9.9746 18.3975 13.1481 19.2626 16.5495 19.8918C18.3405 20.2221 20.7521 20.5603 20.972 20.5052C21.082 20.4816 21.3255 20.3558 21.5141 20.23C21.7026 20.0963 21.8675 20.0098 21.8754 20.0255C21.8833 20.0333 21.9304 20.2064 21.9775 20.403C22.0246 20.5996 22.0796 20.812 22.1111 20.8749C22.1425 20.9535 21.8126 21.4333 21.1056 22.3299C19.4245 24.4455 19.4481 24.4141 19.4481 25.0747V25.641L20.1158 26.5769C21.0977 27.9454 21.5062 28.3701 22.1032 28.606C22.3781 28.7161 22.8259 28.8498 23.1087 28.9049C23.3836 28.9521 23.6507 29.0071 23.69 29.015C23.8157 29.0465 24.2163 30.9891 24.1613 31.2644C24.0906 31.5868 23.5721 31.9958 22.873 32.2789C21.5141 32.8373 21.1134 33.1441 20.7442 33.8912C20.5793 34.2294 20.5479 34.3946 20.5479 35.0709V35.8574L20.9328 36.6046C21.8361 38.3742 22.5824 39.255 23.6114 39.7505C25.261 40.5449 29.7778 41.237 31.2861 40.9224C32.7472 40.6157 33.9647 39.4831 34.9545 37.4933C35.7872 35.8181 36.015 34.8193 35.9993 32.9474C35.9835 30.7925 35.9521 30.6273 34.2161 24.768C33.3991 22.0153 32.9828 20.3951 32.7472 19.0266C32.5979 18.1694 32.5743 17.7054 32.5665 16.156C32.5665 13.5291 32.7786 12.5539 33.5955 11.5393C33.8312 11.2483 34.1375 10.7843 34.2711 10.509C34.5853 9.87196 34.6324 9.33715 34.6403 6.47435C34.6481 3.98119 34.6089 3.73738 34.0904 3.14751C33.4541 2.42395 32.7629 2.16441 30.7362 1.88127C25.6617 1.16557 20.5164 0.827382 18.859 1.08692ZM4.3502 7.92934C8.72561 9.27423 12.8496 10.3753 17.8928 11.5314C18.5447 11.6809 18.7019 11.7438 18.7333 11.8696C18.8511 12.3808 19.8095 18.6963 19.7702 18.7356C19.6995 18.7986 18.0734 18.5469 16.1096 18.1537C12.9203 17.5245 10.2495 16.7773 8.0579 15.9122C7.06814 15.5189 4.79009 14.3943 4.2088 14.0167L3.82389 13.7572L3.21118 11.0438C2.8734 9.5495 2.55133 8.11023 2.48849 7.83496C2.42565 7.56756 2.39422 7.34734 2.40993 7.34734C2.4335 7.34734 3.30544 7.60688 4.3502 7.92934ZM31.0111 14.1662C30.8933 14.8819 30.8619 16.502 30.9483 17.4537C31.1604 19.8131 31.4982 21.2681 33.0692 26.5769C33.6348 28.4802 34.1611 30.352 34.2318 30.7453C34.4282 31.7756 34.4282 34.253 34.224 34.953C33.6819 36.8956 32.5272 38.6809 31.4982 39.1607C31.1132 39.3337 30.9719 39.3573 30.0921 39.3573C28.4032 39.3573 25.2296 38.7753 24.2948 38.3034C23.7685 38.036 23.148 37.3203 22.6609 36.4316C22.1739 35.5428 22.0482 35.1811 22.1111 34.8507C22.1896 34.426 22.4567 34.1901 23.2187 33.8912C24.5305 33.3643 25.1746 32.8609 25.5438 32.0823C25.8188 31.5003 25.8423 30.9104 25.6145 29.9195C25.4181 29.0779 25.4181 29.0543 25.6381 29.0543C25.8738 29.0543 26.5415 28.7319 26.8557 28.4645C27.2092 28.1656 28.0261 27.0803 28.2068 26.6713C28.4346 26.1443 28.5446 25.2556 28.4896 24.4534C28.4267 23.6433 28.2382 22.3613 28.1204 22.0074C27.9711 21.5277 27.8297 21.4726 25.646 20.985L23.6036 20.5367L23.5093 19.9783C23.4543 19.6716 23.3915 19.3334 23.3679 19.2233C23.3286 19.0345 23.4936 18.9087 25.9445 17.2807C27.382 16.3211 29.0944 15.165 29.7386 14.7088C30.3906 14.2605 30.9483 13.883 30.9876 13.883C31.0268 13.8752 31.0347 14.0089 31.0111 14.1662ZM26.8321 25.6489C26.7693 26.0578 25.9837 27.1746 25.6224 27.3634C25.3789 27.4892 24.3891 27.5128 23.9256 27.4106L23.69 27.3555L23.9963 27.2926C24.4362 27.2061 24.9861 26.9072 25.2689 26.6005C25.5674 26.278 26.4943 25.059 26.6907 24.7287L26.8321 24.477L26.8557 24.9017C26.8714 25.1298 26.8635 25.468 26.8321 25.6489Z" stroke="black" stroke-width="0.5" stroke-linecap="square"/>
<defs>
<linearGradient id="paint0_linear_10_23" x1="18.2388" y1="41" x2="18.2388" y2="1" gradientUnits="userSpaceOnUse">
<stop stop-color="#FAC213"/>
<stop offset="0.484375" stop-color="#F77E21"/>
<stop offset="1" stop-color="#D61C4E"/>
</linearGradient>
<linearGradient id="paint1_linear_10_23" x1="18.2388" y1="41" x2="18.2388" y2="1" gradientUnits="userSpaceOnUse">
<stop stop-color="#FAC213"/>
<stop offset="0.484375" stop-color="#F77E21"/>
<stop offset="1" stop-color="#D61C4E"/>
</linearGradient>
<linearGradient id="paint2_linear_10_23" x1="18.2388" y1="41" x2="18.2388" y2="1" gradientUnits="userSpaceOnUse">
<stop stop-color="#FAC213"/>
<stop offset="0.484375" stop-color="#F77E21"/>
<stop offset="1" stop-color="#D61C4E"/>
</linearGradient>
<linearGradient id="paint3_linear_10_23" x1="18.2388" y1="41" x2="18.2388" y2="1" gradientUnits="userSpaceOnUse">
<stop stop-color="#FAC213"/>
<stop offset="0.484375" stop-color="#F77E21"/>
<stop offset="1" stop-color="#D61C4E"/>
</linearGradient>
<linearGradient id="paint4_linear_10_23" x1="18.2388" y1="41" x2="18.2388" y2="1" gradientUnits="userSpaceOnUse">
<stop stop-color="#FAC213"/>
<stop offset="0.484375" stop-color="#F77E21"/>
<stop offset="1" stop-color="#D61C4E"/>
</linearGradient>
<linearGradient id="paint5_linear_10_23" x1="18.2388" y1="41" x2="18.2388" y2="1" gradientUnits="userSpaceOnUse">
<stop stop-color="#FAC213"/>
<stop offset="0.484375" stop-color="#F77E21"/>
<stop offset="1" stop-color="#D61C4E"/>
</linearGradient>
</defs>
</svg>
