<svg width="40" height="40" viewBox="0 0 40 40" fill="none" xmlns="http://www.w3.org/2000/svg">
<g clip-path="url(#clip0_0_1)">
<path d="M22.8125 0.343746C21.9922 0.476559 21.875 0.499996 12.5391 2.76562C5.21875 4.54687 4.95312 4.61718 4.74219 4.84375C4.625 4.97656 4.53125 5.16406 4.53125 5.26562C4.53125 5.60937 6.39062 13.6797 6.51562 13.8672C6.83594 14.3594 9.38281 15.7266 11.6016 16.6016C13.9766 17.5391 17.1328 18.3984 20.5156 19.0234C22.2969 19.3516 24.6953 19.6875 24.9141 19.6328C25.0234 19.6094 25.2656 19.4844 25.4531 19.3594C25.6406 19.2266 25.8047 19.1406 25.8125 19.1562C25.8203 19.1641 25.8672 19.3359 25.9141 19.5312C25.9609 19.7266 26.0156 19.9375 26.0469 20C26.0781 20.0781 25.75 20.5547 25.0469 21.4453C23.375 23.5469 23.3984 23.5156 23.3984 24.1719V24.7344L24.0625 25.6641C25.0391 27.0234 25.4453 27.4453 26.0391 27.6797C26.3125 27.7891 26.7578 27.9219 27.0391 27.9766C27.3125 28.0234 27.5781 28.0781 27.6172 28.0859C27.7422 28.1172 28.1406 30.0469 28.0859 30.3203C28.0156 30.6406 27.5 31.0469 26.8047 31.3281C25.4531 31.8828 25.0547 32.1875 24.6875 32.9297C24.5234 33.2656 24.4922 33.4297 24.4922 34.1016V34.8828L24.875 35.625C25.7734 37.3828 26.5156 38.2578 27.5391 38.75C29.1797 39.5391 33.6719 40.2266 35.1719 39.9141C36.625 39.6094 37.8359 38.4844 38.8203 36.5078C39.6484 34.8437 39.875 33.8516 39.8594 31.9922C39.8438 29.8516 39.8125 29.6875 38.0859 23.8672C37.2734 21.1328 36.8594 19.5234 36.625 18.1641C36.4766 17.3125 36.4531 16.8516 36.4453 15.3125C36.4453 12.7031 36.6562 11.7344 37.4688 10.7266C37.7031 10.4375 38.0078 9.97656 38.1406 9.70312C38.4531 9.07031 38.5 8.53906 38.5078 5.69531C38.5156 3.21875 38.4766 2.97656 37.9609 2.39062C37.3281 1.67187 36.6406 1.41406 34.625 1.13281C29.5781 0.421871 24.4609 0.0859337 22.8125 0.343746ZM28.2812 2.03125C31.4219 2.32812 34.5625 2.69531 35.625 2.90625C36.125 3 36.5391 3.19531 36.7578 3.4375C36.9062 3.60156 36.9141 3.70312 36.8906 6.15625C36.8594 8.64062 36.8594 8.71875 36.6797 9.0625C36.3594 9.67968 35.4062 10.6562 34.375 11.4141C33.2578 12.2344 25.3828 17.5234 25.3438 17.4766C25.3359 17.4687 25.0781 15.8594 24.7656 13.9062C24.4609 11.9531 24.1562 10.2109 24.0938 10.0391C24.0312 9.85156 23.8984 9.67187 23.7656 9.59375C23.6484 9.52343 22.625 9.25 21.4844 8.98437C17.6094 8.08593 14.5703 7.30468 11.7188 6.46875C9.50781 5.82812 8.30469 5.45312 8.39844 5.42187C8.44531 5.40625 11.6016 4.64062 15.4297 3.71875C21.7734 2.17968 22.8281 1.94531 23.7891 1.84375C24.3672 1.78125 26.5859 1.875 28.2812 2.03125ZM8.38281 7.14062C12.7344 8.47656 16.8359 9.57031 21.8516 10.7187C22.5 10.8672 22.6562 10.9297 22.6875 11.0547C22.8047 11.5625 23.7578 17.8359 23.7188 17.875C23.6484 17.9375 22.0312 17.6875 20.0781 17.2969C16.9062 16.6719 14.25 15.9297 12.0703 15.0703C11.0859 14.6797 8.82031 13.5625 8.24219 13.1875L7.85938 12.9297L7.25 10.2344C6.91406 8.75 6.59375 7.32031 6.53125 7.04687C6.46875 6.78125 6.4375 6.5625 6.45312 6.5625C6.47656 6.5625 7.34375 6.82031 8.38281 7.14062ZM34.8984 13.3359C34.7812 14.0469 34.75 15.6562 34.8359 16.6016C35.0469 18.9453 35.3828 20.3906 36.9453 25.6641C37.5078 27.5547 38.0312 29.4141 38.1016 29.8047C38.2969 30.8281 38.2969 33.2891 38.0938 33.9844C37.5547 35.9141 36.4062 37.6875 35.3828 38.1641C35 38.3359 34.8594 38.3594 33.9844 38.3594C32.3047 38.3594 29.1484 37.7812 28.2188 37.3125C27.6953 37.0469 27.0781 36.3359 26.5938 35.4531C26.1094 34.5703 25.9844 34.2109 26.0469 33.8828C26.125 33.4609 26.3906 33.2266 27.1484 32.9297C28.4531 32.4062 29.0938 31.9062 29.4609 31.1328C29.7344 30.5547 29.7578 29.9687 29.5312 28.9844C29.3359 28.1484 29.3359 28.125 29.5547 28.125C29.7891 28.125 30.4531 27.8047 30.7656 27.5391C31.1172 27.2422 31.9297 26.1641 32.1094 25.7578C32.3359 25.2344 32.4453 24.3516 32.3906 23.5547C32.3281 22.75 32.1406 21.4766 32.0234 21.125C31.875 20.6484 31.7344 20.5937 29.5625 20.1094L27.5312 19.6641L27.4375 19.1094C27.3828 18.8047 27.3203 18.4687 27.2969 18.3594C27.2578 18.1719 27.4219 18.0469 29.8594 16.4297C31.2891 15.4766 32.9922 14.3281 33.6328 13.875C34.2812 13.4297 34.8359 13.0547 34.875 13.0547C34.9141 13.0469 34.9219 13.1797 34.8984 13.3359ZM28.6094 21.5391C29.3359 21.6953 29.9219 21.8594 29.9219 21.8984C29.9219 21.9844 28.7734 23.6719 28.3203 24.2422C28.125 24.4922 27.8672 24.7344 27.75 24.7734C27.0859 25.0312 25 24.5469 25 24.1406C25 24.1094 25.3906 23.6016 25.8594 23.0078C26.3359 22.4219 26.8281 21.7812 26.9688 21.5937C27.1016 21.4062 27.2344 21.25 27.2578 21.25C27.2812 21.25 27.8906 21.3828 28.6094 21.5391ZM30.7422 24.7422C30.6797 25.1484 29.8984 26.2578 29.5391 26.4453C29.2969 26.5703 28.3125 26.5937 27.8516 26.4922L27.6172 26.4375L27.9219 26.375C28.3594 26.2891 28.9062 25.9922 29.1875 25.6875C29.4844 25.3672 30.4062 24.1562 30.6016 23.8281L30.7422 23.5781L30.7656 24C30.7812 24.2266 30.7734 24.5625 30.7422 24.7422Z" fill="#FAC213"/>
<path d="M1.78906 21.6172C1.1875 21.7109 0.328125 22.5 0.15625 23.1094C0.109375 23.2969 0.078125 25.7188 0.078125 30.0781V36.7578L0.265625 37.1484C0.617188 37.9062 1.46094 38.4375 2.3125 38.4375C2.5 38.4375 3.05469 38.2969 3.5625 38.125C4.07031 37.9531 4.57813 37.8125 4.69531 37.8125C4.8125 37.8125 5.48438 38.0703 6.1875 38.375C7.375 38.9062 7.5 38.9453 8.00781 38.9453C8.51563 38.9453 8.64063 38.9062 9.82813 38.375C10.5313 38.0703 11.2031 37.8125 11.3203 37.8125C11.4375 37.8125 11.9453 37.9531 12.4531 38.125C13.4453 38.4609 13.8203 38.5 14.4297 38.3203C14.9531 38.1641 15.5469 37.6328 15.7734 37.1094L15.9375 36.7188L15.9219 29.9062L15.8984 23.0859L15.6875 22.7266C15.4453 22.3203 15.1328 22.0312 14.6563 21.7734L14.3359 21.6016L8.16406 21.5938C4.77344 21.5859 1.89844 21.6016 1.78906 21.6172ZM14.2813 22.9688C14.7813 23.2734 14.7656 23.0234 14.7656 30C14.7656 36.9766 14.7813 36.7266 14.2813 37.0312C13.9141 37.2578 13.625 37.2266 12.5625 36.8672C11.2891 36.4297 11.125 36.4453 9.5 37.1797C8.78125 37.5 8.15625 37.7344 8.00781 37.7344C7.85938 37.7344 7.23438 37.5 6.51563 37.1797C4.89063 36.4453 4.72656 36.4297 3.46875 36.8672C2.41406 37.2266 2.10938 37.2578 1.73438 37.0312C1.23438 36.7266 1.25 36.9766 1.25 30C1.25 23.0234 1.23438 23.2734 1.73438 22.9688C1.98438 22.8125 2.10938 22.8125 8.00781 22.8125C13.9063 22.8125 14.0313 22.8125 14.2813 22.9688Z" fill="#FAC213"/>
<path d="M3.67188 25.7266C3.26563 25.9297 3.21094 26.4922 3.57813 26.7656C3.77344 26.9141 12.2422 26.9141 12.4375 26.7656C12.8047 26.4922 12.75 25.9297 12.3438 25.7266C12.0625 25.5859 3.95313 25.5859 3.67188 25.7266Z" fill="#FAC213"/>
<path d="M3.54688 29.0859C3.39063 29.2188 3.33594 29.3438 3.33594 29.5312C3.33594 29.7188 3.39063 29.8438 3.54688 29.9766L3.75781 30.1562H8.00781H12.2578L12.4688 29.9766C12.7578 29.7188 12.7578 29.3438 12.4688 29.0859L12.2578 28.9062H8.00781H3.75781L3.54688 29.0859Z" fill="#FAC213"/>
<path d="M3.54688 32.3672C3.25 32.625 3.25781 33 3.54688 33.2578L3.76563 33.4453L6.03125 33.4219L8.29688 33.3984L8.44531 33.2109C8.66406 32.9375 8.64063 32.5469 8.39063 32.3516C8.1875 32.1953 8.08594 32.1875 5.96875 32.1875C3.76563 32.1875 3.75781 32.1875 3.54688 32.3672Z" fill="#FAC213"/>
</g>
<defs>
<clipPath id="clip0_0_1">
<rect width="40" height="40" fill="white"/>
</clipPath>
</defs>
</svg>
