<?xml version="1.0" standalone="no"?>
<!DOCTYPE svg PUBLIC "-//W3C//DTD SVG 20010904//EN"
 "http://www.w3.org/TR/2001/REC-SVG-20010904/DTD/svg10.dtd">
<svg version="1.0" xmlns="http://www.w3.org/2000/svg"
 width="672.000000pt" height="672.000000pt" viewBox="0 0 672.000000 672.000000"
 preserveAspectRatio="xMidYMid meet">
<metadata>
Created by potrace 1.14, written by Peter Selinger 2001-2017
</metadata>
<g transform="translate(0.000000,672.000000) scale(0.100000,-0.100000)"
fill="#000000" stroke="none">
<path d="M3750 6603 c0 -4 -60 -8 -133 -7 -172 1 -277 -17 -727 -126 -41 -10
-122 -30 -180 -44 -166 -39 -403 -97 -422 -102 -39 -9 -188 -45 -208 -49 -8
-2 -15 -4 -15 -5 0 -1 -8 -3 -17 -5 -9 -2 -47 -11 -84 -20 -37 -9 -75 -18 -83
-20 -9 -2 -92 -22 -186 -45 -206 -50 -201 -49 -222 -54 -10 -2 -45 -11 -78
-20 -33 -8 -74 -18 -92 -21 -18 -3 -43 -9 -57 -15 -15 -5 -26 -7 -26 -4 0 2
-8 0 -17 -5 -10 -5 -31 -11 -48 -15 -16 -3 -59 -12 -95 -21 -36 -9 -72 -18
-80 -20 -8 -2 -62 -15 -120 -30 -58 -15 -112 -28 -120 -30 -256 -60 -325 -119
-294 -253 8 -31 16 -70 19 -87 7 -50 15 -83 25 -109 5 -13 7 -26 4 -29 -2 -2
0 -15 5 -29 5 -14 12 -38 14 -54 3 -16 10 -51 16 -79 6 -27 14 -61 17 -75 2
-14 8 -34 11 -45 3 -11 8 -29 10 -40 1 -11 10 -49 19 -85 8 -36 17 -74 19 -85
2 -11 11 -47 19 -80 9 -33 19 -76 22 -95 3 -19 8 -38 10 -41 2 -3 6 -21 9 -40
3 -19 10 -47 15 -64 5 -16 24 -90 42 -164 18 -74 41 -145 51 -157 19 -25 129
-104 180 -130 18 -9 34 -20 37 -23 25 -30 571 -286 584 -274 3 4 6 1 6 -5 0
-7 7 -12 15 -12 8 0 23 -4 33 -9 9 -5 44 -19 77 -31 33 -12 69 -26 80 -30 11
-5 81 -27 155 -50 74 -23 146 -46 160 -51 14 -5 34 -10 45 -12 11 -2 27 -6 35
-9 13 -5 83 -26 115 -34 12 -3 47 -12 73 -18 9 -3 84 -20 165 -40 82 -20 158
-38 170 -40 12 -2 33 -7 47 -10 14 -3 36 -8 50 -10 23 -4 83 -16 150 -31 14
-3 50 -9 80 -15 30 -6 66 -12 80 -15 14 -3 45 -8 70 -11 48 -7 70 -10 110 -19
14 -3 41 -7 60 -10 47 -5 119 -15 150 -21 14 -3 41 -6 60 -8 99 -9 176 -18
181 -22 3 -2 34 10 69 27 34 16 65 28 67 25 2 -2 6 -20 10 -39 5 -31 -1 -45
-39 -99 -46 -66 -71 -99 -100 -130 -10 -10 -18 -22 -18 -26 0 -4 -16 -25 -35
-45 -19 -20 -35 -42 -35 -47 0 -6 -4 -10 -9 -10 -5 0 -17 -13 -28 -29 -10 -16
-37 -54 -60 -84 -74 -97 -87 -130 -90 -235 l-3 -95 57 -81 c217 -308 292 -384
430 -432 67 -24 85 -29 141 -39 70 -13 69 -12 87 -82 18 -74 33 -155 38 -218
3 -36 0 -44 -36 -78 -22 -20 -46 -37 -53 -37 -8 0 -14 -3 -14 -8 0 -7 -8 -11
-105 -52 -137 -58 -209 -102 -261 -160 -80 -88 -104 -164 -105 -324 -1 -121 7
-159 39 -198 9 -10 12 -18 8 -18 -4 0 1 -12 12 -27 10 -16 31 -53 46 -83 74
-148 212 -321 312 -390 56 -39 148 -82 219 -104 33 -10 67 -20 75 -23 8 -3 22
-7 30 -9 8 -1 40 -9 70 -18 30 -8 69 -18 85 -21 17 -3 41 -8 55 -11 14 -3 33
-5 42 -5 10 0 20 -5 23 -10 4 -5 10 -7 15 -4 4 2 32 0 61 -5 30 -5 68 -12 84
-15 17 -3 55 -8 85 -11 30 -4 69 -8 85 -10 67 -9 343 -12 390 -4 207 34 386
162 535 384 46 68 170 303 170 321 0 3 6 20 13 38 8 18 14 34 15 37 1 3 10 31
21 63 43 125 54 211 56 457 2 278 -5 343 -65 575 -39 152 -35 137 -60 225 -12
41 -23 82 -25 90 -2 8 -4 15 -5 15 -1 0 -3 7 -5 15 -1 8 -14 53 -28 100 -14
47 -44 148 -66 225 -45 153 -71 242 -79 265 -3 8 -7 24 -9 35 -2 11 -8 31 -13
45 -9 23 -36 119 -45 163 -2 10 -14 52 -25 95 -23 82 -28 102 -36 142 -3 14
-7 33 -10 42 -6 19 -13 52 -20 88 -2 14 -6 34 -9 46 -3 12 -7 39 -10 60 -3 21
-8 45 -10 51 -19 57 -28 593 -13 748 11 112 39 223 69 275 5 8 16 28 25 45 9
16 41 61 70 100 30 40 54 77 54 83 0 7 3 12 8 12 12 0 53 98 68 160 18 78 26
239 26 550 0 310 -6 397 -35 465 -46 108 -158 202 -297 248 -49 17 -183 46
-240 53 -19 2 -46 6 -60 9 -14 2 -47 7 -75 11 -27 3 -63 8 -80 10 -67 11 -83
13 -148 19 -37 3 -76 8 -86 10 -10 2 -42 6 -72 9 -30 4 -67 8 -84 10 -16 2
-61 7 -100 11 -38 3 -88 8 -110 11 -39 5 -100 10 -215 18 -30 3 -86 7 -125 10
-113 10 -231 16 -363 21 -67 2 -127 7 -132 10 -6 3 -10 3 -10 -2z"/>
</g>
</svg>
